<svg width="24" height="24" viewBox="0 0 24 24" fill="none" xmlns="http://www.w3.org/2000/svg">
<path d="M14.953 19.9972C16.6139 19.9166 17.3875 17.665 18.7834 16.6884C20.0869 15.7765 22.1657 15.9536 22.8708 14.4581C23.5831 12.9472 21.9943 11.2018 22.1648 9.51616C22.3667 7.51847 24.3769 5.86111 23.9374 3.90851C23.5111 2.01497 21.816 0.251593 20.0265 0.0161387C18.1215 -0.234521 16.8619 2.51445 14.953 2.72636C13.3485 2.90446 12.0444 0.836541 10.4473 1.07947C8.74911 1.33775 6.85634 2.34133 6.20599 4.05672C5.54283 5.8059 6.6404 7.74381 7.24869 9.51616C7.70338 10.841 8.6846 11.7982 9.29234 13.0492C9.93242 14.3668 10.0086 15.9537 10.9185 17.0705C12.0075 18.4072 13.307 20.0772 14.953 19.9972Z" fill="#A3AAAF"/>
<path d="M8.75883 4.7998H14.0388C15.0891 4.7998 16.0963 5.21702 16.8389 5.95966C17.5816 6.70231 17.9988 7.70955 17.9988 8.7598V14.0398C17.9988 15.0901 17.5816 16.0973 16.8389 16.8399C16.0963 17.5826 15.0891 17.9998 14.0388 17.9998H8.75883C7.70858 17.9998 6.70134 17.5826 5.95869 16.8399C5.21605 16.0973 4.79883 15.0901 4.79883 14.0398V8.7598C4.79883 7.70955 5.21605 6.70231 5.95869 5.95966C6.70134 5.21702 7.70858 4.7998 8.75883 4.7998ZM12.7188 10.7398C12.5438 10.7398 12.3759 10.8093 12.2521 10.9331C12.1283 11.0569 12.0588 11.2248 12.0588 11.3998C12.0588 11.5748 12.1283 11.7427 12.2521 11.8665C12.3759 11.9903 12.5438 12.0598 12.7188 12.0598H14.6988C14.8738 12.0598 15.0417 11.9903 15.1655 11.8665C15.2893 11.7427 15.3588 11.5748 15.3588 11.3998C15.3588 11.2248 15.2893 11.0569 15.1655 10.9331C15.0417 10.8093 14.8738 10.7398 14.6988 10.7398H12.7188ZM11.3988 13.3798C11.2238 13.3798 11.0559 13.4493 10.9321 13.5731C10.8083 13.6969 10.7388 13.8648 10.7388 14.0398C10.7388 14.2148 10.8083 14.3827 10.9321 14.5065C11.0559 14.6303 11.2238 14.6998 11.3988 14.6998H14.6988C14.8738 14.6998 15.0417 14.6303 15.1655 14.5065C15.2893 14.3827 15.3588 14.2148 15.3588 14.0398C15.3588 13.8648 15.2893 13.6969 15.1655 13.5731C15.0417 13.4493 14.8738 13.3798 14.6988 13.3798H11.3988ZM11.3988 8.0998C11.2238 8.0998 11.0559 8.16934 10.9321 8.29311C10.8083 8.41689 10.7388 8.58476 10.7388 8.7598C10.7388 8.93485 10.8083 9.10273 10.9321 9.22649C11.0559 9.35027 11.2238 9.4198 11.3988 9.4198H14.6988C14.8738 9.4198 15.0417 9.35027 15.1655 9.22649C15.2893 9.10273 15.3588 8.93485 15.3588 8.7598C15.3588 8.58476 15.2893 8.41689 15.1655 8.29311C15.0417 8.16934 14.8738 8.0998 14.6988 8.0998H11.3988ZM8.64531 11.5602L8.17869 11.0936C8.11781 11.0305 8.04498 10.9802 7.96446 10.9457C7.88394 10.9111 7.79733 10.8929 7.7097 10.8921C7.62207 10.8913 7.53516 10.908 7.45404 10.9412C7.37293 10.9744 7.29924 11.0234 7.23727 11.0854C7.1753 11.1474 7.1263 11.221 7.09311 11.3022C7.05993 11.3833 7.04323 11.4702 7.04399 11.5578C7.04475 11.6454 7.06296 11.732 7.09755 11.8126C7.13214 11.8931 7.18242 11.9659 7.24545 12.0268L8.17869 12.96C8.23999 13.0214 8.31278 13.0701 8.3929 13.1033C8.47303 13.1365 8.55891 13.1536 8.64564 13.1536C8.73238 13.1536 8.81826 13.1365 8.89839 13.1033C8.97851 13.0701 9.0513 13.0214 9.11259 12.96L10.979 11.0936C11.103 10.9698 11.1727 10.8019 11.1728 10.6268C11.1729 10.4516 11.1035 10.2836 10.9797 10.1597C10.8559 10.0357 10.688 9.96605 10.5129 9.96593C10.3378 9.9658 10.1697 10.0352 10.0458 10.159L8.64531 11.5602Z" fill="#575757" stroke="#CCCCCC" stroke-width="4.73088" stroke-linecap="round" stroke-linejoin="round"/>
<path d="M8.21499 3.59961H14.3688C15.5929 3.59961 16.7669 4.08587 17.6324 4.95142C18.498 5.81698 18.9842 6.99092 18.9842 8.21499V14.3688C18.9842 15.5929 18.498 16.7669 17.6324 17.6324C16.7669 18.498 15.5929 18.9842 14.3688 18.9842H8.21499C6.99092 18.9842 5.81698 18.498 4.95142 17.6324C4.08587 16.7669 3.59961 15.5929 3.59961 14.3688V8.21499C3.59961 6.99092 4.08587 5.81698 4.95142 4.95142C5.81698 4.08587 6.99092 3.59961 8.21499 3.59961ZM12.8304 10.5227C12.6264 10.5227 12.4307 10.6037 12.2864 10.748C12.1422 10.8922 12.0611 11.0879 12.0611 11.2919C12.0611 11.4959 12.1422 11.6916 12.2864 11.8358C12.4307 11.9801 12.6264 12.0611 12.8304 12.0611H15.1381C15.3421 12.0611 15.5377 11.9801 15.682 11.8358C15.8263 11.6916 15.9073 11.4959 15.9073 11.2919C15.9073 11.0879 15.8263 10.8922 15.682 10.748C15.5377 10.6037 15.3421 10.5227 15.1381 10.5227H12.8304ZM11.2919 13.5996C11.0879 13.5996 10.8922 13.6807 10.748 13.8249C10.6037 13.9692 10.5227 14.1648 10.5227 14.3688C10.5227 14.5729 10.6037 14.7685 10.748 14.9128C10.8922 15.057 11.0879 15.1381 11.2919 15.1381H15.1381C15.3421 15.1381 15.5377 15.057 15.682 14.9128C15.8263 14.7685 15.9073 14.5729 15.9073 14.3688C15.9073 14.1648 15.8263 13.9692 15.682 13.8249C15.5377 13.6807 15.3421 13.5996 15.1381 13.5996H11.2919ZM11.2919 7.44576C11.0879 7.44576 10.8922 7.52681 10.748 7.67107C10.6037 7.81532 10.5227 8.01098 10.5227 8.21499C10.5227 8.41901 10.6037 8.61466 10.748 8.75892C10.8922 8.90318 11.0879 8.98422 11.2919 8.98422H15.1381C15.3421 8.98422 15.5377 8.90318 15.682 8.75892C15.8263 8.61466 15.9073 8.41901 15.9073 8.21499C15.9073 8.01098 15.8263 7.81532 15.682 7.67107C15.5377 7.52681 15.3421 7.44576 15.1381 7.44576H11.2919ZM8.08269 11.4788L7.53884 10.935C7.46788 10.8615 7.383 10.8029 7.28915 10.7626C7.1953 10.7223 7.09436 10.7011 6.99223 10.7002C6.89009 10.6993 6.7888 10.7188 6.69426 10.7574C6.59972 10.7961 6.51384 10.8532 6.44161 10.9255C6.36939 10.9977 6.31227 11.0836 6.27359 11.1781C6.23492 11.2726 6.21545 11.3739 6.21634 11.4761C6.21723 11.5782 6.23845 11.6791 6.27876 11.773C6.31908 11.8668 6.37768 11.9517 6.45115 12.0227L7.53884 13.1104C7.61028 13.1819 7.69512 13.2386 7.7885 13.2773C7.88188 13.3161 7.98198 13.336 8.08307 13.336C8.18416 13.336 8.28426 13.3161 8.37764 13.2773C8.47102 13.2386 8.55586 13.1819 8.6273 13.1104L10.8027 10.935C10.9471 10.7908 11.0284 10.595 11.0285 10.3909C11.0286 10.1868 10.9477 9.99097 10.8035 9.84653C10.6592 9.70209 10.4635 9.62086 10.2594 9.62072C10.0553 9.62058 9.85943 9.70153 9.71499 9.84576L8.08269 11.4788Z" fill="#575757" stroke="#575757" stroke-width="0.295385"/>
</svg>
