<svg width="25" height="25" viewBox="0 0 25 25" fill="none" xmlns="http://www.w3.org/2000/svg">
<path d="M7.7 0.5H17.3C19.2096 0.5 21.0409 1.25857 22.3912 2.60883C23.7414 3.95909 24.5 5.79044 24.5 7.7V17.3C24.5 19.2096 23.7414 21.0409 22.3912 22.3912C21.0409 23.7414 19.2096 24.5 17.3 24.5H7.7C5.79044 24.5 3.95909 23.7414 2.60883 22.3912C1.25857 21.0409 0.5 19.2096 0.5 17.3L0.5 7.7C0.5 5.79044 1.25857 3.95909 2.60883 2.60883C3.95909 1.25857 5.79044 0.5 7.7 0.5ZM14.9 11.3C14.5817 11.3 14.2765 11.4264 14.0515 11.6515C13.8264 11.8765 13.7 12.1817 13.7 12.5C13.7 12.8183 13.8264 13.1235 14.0515 13.3485C14.2765 13.5736 14.5817 13.7 14.9 13.7H18.5C18.8183 13.7 19.1235 13.5736 19.3485 13.3485C19.5736 13.1235 19.7 12.8183 19.7 12.5C19.7 12.1817 19.5736 11.8765 19.3485 11.6515C19.1235 11.4264 18.8183 11.3 18.5 11.3H14.9ZM12.5 16.1C12.1817 16.1 11.8765 16.2264 11.6515 16.4515C11.4264 16.6765 11.3 16.9817 11.3 17.3C11.3 17.6183 11.4264 17.9235 11.6515 18.1485C11.8765 18.3736 12.1817 18.5 12.5 18.5H18.5C18.8183 18.5 19.1235 18.3736 19.3485 18.1485C19.5736 17.9235 19.7 17.6183 19.7 17.3C19.7 16.9817 19.5736 16.6765 19.3485 16.4515C19.1235 16.2264 18.8183 16.1 18.5 16.1H12.5ZM12.5 6.5C12.1817 6.5 11.8765 6.62643 11.6515 6.85147C11.4264 7.07652 11.3 7.38174 11.3 7.7C11.3 8.01826 11.4264 8.32348 11.6515 8.54853C11.8765 8.77357 12.1817 8.9 12.5 8.9H18.5C18.8183 8.9 19.1235 8.77357 19.3485 8.54853C19.5736 8.32348 19.7 8.01826 19.7 7.7C19.7 7.38174 19.5736 7.07652 19.3485 6.85147C19.1235 6.62643 18.8183 6.5 18.5 6.5H12.5ZM7.4936 12.7916L6.6452 11.9432C6.5345 11.8286 6.40209 11.7372 6.25569 11.6743C6.10928 11.6114 5.95182 11.5783 5.79248 11.5769C5.63315 11.5755 5.47513 11.6059 5.32766 11.6662C5.18018 11.7266 5.0462 11.8157 4.93353 11.9283C4.82086 12.041 4.73175 12.175 4.67141 12.3225C4.61108 12.4699 4.58072 12.6279 4.5821 12.7873C4.58348 12.9466 4.61659 13.1041 4.67948 13.2505C4.74237 13.3969 4.83379 13.5293 4.9484 13.64L6.6452 15.3368C6.75665 15.4484 6.88899 15.5369 7.03467 15.5973C7.18035 15.6577 7.3365 15.6887 7.4942 15.6887C7.6519 15.6887 7.80805 15.6577 7.95373 15.5973C8.09941 15.5369 8.23175 15.4484 8.3432 15.3368L11.7368 11.9432C11.9621 11.7182 12.0888 11.4129 12.0891 11.0944C12.0893 10.776 11.963 10.4705 11.738 10.2452C11.513 10.0199 11.2077 9.89316 10.8892 9.89293C10.5708 9.89271 10.2653 10.019 10.04 10.244L7.4936 12.7904V12.7916Z" fill="#575757" stroke="#F4F0E9"/>
</svg>
